# xmcd
#
# Track frame offsets:
#	150
#	18453
#	43681
#	58118
#	73291
#	97200
#	114267
#	136296
#	154595
#	172210
#	190534
#	206317
#	222764
#	238622
#	259772
#	283357
#
# Disc length: 4138 seconds
#
# Revision: 0
# Processed by: cddbd v1.5.1PL0 Copyright (c) Steve Scherf et al.
# Submitted via: dBpowerAMP V4.0
#
DISCID=f1102810
DTITLE=Buenger Dickson - Blow Out
DYEAR=2003
DGENRE=Country
TTITLE0=Texas Hurricane
TTITLE1=Ghost in the Wind
TTITLE2=Blow Out
TTITLE3=I'm Not A Cowboy
TTITLE4=Fire Storm
TTITLE5=Baytown
TTITLE6=Memory Of Her Love
TTITLE7=Pale Rider
TTITLE8=Love In The Flow
TTITLE9=Devil's Hide
TTITLE10=Dawn
TTITLE11=Dragon Tears
TTITLE12=I Can't Say Good-bye
TTITLE13=Couch Potato
TTITLE14=Midnight Angel
TTITLE15=Memphis Run
EXTD=Hi, I'm Mike.  I think this is a local (to Houston, TX.) guy, but not sure
EXTT0=
EXTT1=
EXTT2=
EXTT3=
EXTT4=
EXTT5=
EXTT6=
EXTT7=
EXTT8=
EXTT9=
EXTT10=
EXTT11=
EXTT12=
EXTT13=
EXTT14=
EXTT15=
PLAYORDER=
